# xmcd
#
# Track frame offsets: 
#        150
#        13745
#        25287
#        36486
#        47066
#        59560
#        72489
#        88584
#        97998
#        113008
#        123958
#        135050
#        150048
#        165283
#        183694
#
# Disc length: 2621 seconds
#
# Revision: 3
# Processed by: cddbd v1.5PL3 Copyright (c) Steve Scherf et al.
# Submitted via: ExactAudioCopy v0.90a11
#
DISCID=b90a3b0f
DTITLE=STRATOS DIONISIOU  - Ta Afthendika Cd 2
DYEAR=1900
DGENRE=
TTITLE0=Ena Lepto Pariptera
TTITLE1=Enas Aitos Gremistike
TTITLE2=Ena Vrady Pou Tha Pio
TTITLE3=Zisame Kai Den Zisame
TTITLE4=Etsi Imouna Perastikos
TTITLE5=Zito Akroasi Theou
TTITLE6=Gramma Tha Stilo Ston Theo
TTITLE7=Itan Pseutika
TTITLE8=I Axaristi
TTITLE9=Tha Fiso Fodozaxari
TTITLE10=Kai Pali Magkas Thasai
TTITLE11=Kai Ta Leo Se Sena
TTITLE12=Kai Ti Den Kano
TTITLE13=Kai Toto Mones
TTITLE14=Eso Ap Adiko
EXTD=
EXTT0=
EXTT1=
EXTT2=
EXTT3=
EXTT4=
EXTT5=
EXTT6=
EXTT7=
EXTT8=
EXTT9=
EXTT10=
EXTT11=
EXTT12=
EXTT13=
EXTT14=
PLAYORDER=
